<svg xmlns="http://www.w3.org/2000/svg" viewBox="0 0 24 24" fill="currentColor">
  <path d="M12 0C5.4 0 0 4.3 0 9.6c0 3 1.2 5.8 3.3 7.8L2 24l8.2-4.3c1.5.3 3 .5 4.8.5 6.6 0 12-4.3 12-9.6C24 4.3 18.6 0 12 0zm0 17.8c-1.4 0-2.8-.2-4.2-.7l-.8-.3-3.2.6.6-3.2-.3-.8C2 11.7 1.2 10.6 1.2 9.6c0-4.3 4.3-7.8 9.8-7.8s9.8 3.5 9.8 7.8-4.3 7.8-9.8 7.8zm5.8-5.3l-1.4-.7c-.4-.2-.8-.4-1.2-.2-.4.2-1 .8-1.3 1-.2.2-.5.2-.8 0-1.4-.7-2.8-1.8-3.6-3-.2-.3-.2-.6 0-.8.2-.3.6-.7.8-1 .2-.3.2-.6 0-1-.2-.4-.8-1.2-1.2-1.5-.3-.2-.6-.2-.9 0-.6.3-1.2 1-1.2 2 0 .6.2 1.4.6 2.2.8 1.6 2.2 3 3.8 3.8 1.8.8 2.8.8 3.4.8.8 0 1.4-.4 1.8-1 .2-.3.4-.6.4-1 0-.4-.3-.6-.6-.8z"/>
</svg>
