<svg xmlns="http://www.w3.org/2000/svg" viewBox="0 0 24 24" fill="currentColor">
  <path d="M16.6915026,12.4744748 L3.50612381,13.2599618 C3.19218622,13.2599618 3.03521743,13.4170592 3.03521743,13.5741566 L1.15159189,20.0151496 C0.8376543,20.8006365 0.99,21.89 1.77946707,22.52 C2.41,22.99 3.50612381,23.1 4.13399899,22.99 L17.1272231,21.1077622 C18.4908169,20.9506648 19.1587,19.8608132 18.9017312,18.5029954 L14.0151496,13.5741566 C13.859181,13.4170592 13.5452434,13.2599618 13.3882746,13.2599618 C13.1312931,13.4170592 12.6595839,13.8741566 12.6595839,13.8741566 L5.16298957,10.8006365 C5.16298957,10.8006365 4.13399899,10.3435391 2.77946707,10.5006365 L4.13399899,1.01231056 C4.13399899,0.855413307 4.01015424,0.2771856 3.50612381,0.415948705 C2.56155202,0.555563342 1.77946707,0.698006365 1.77946707,0.698006365 L0.994623095,8.00262474 C0.994623095,8.00262474 0.994623095,9.5906131 0.994623095,10.5006365 C0.994623095,14.2461776 5.16298957,22.1075473 12.6595839,22.1075473 C20.1661782,22.1075473 24,14.2461776 24,10.5006365 C24,9.5906131 24,8.00262474 24,8.00262474 Z"/>
</svg>
